<svg id="Layer_1" data-name="Layer 1" xmlns="http://www.w3.org/2000/svg" xmlns:xlink="http://www.w3.org/1999/xlink" viewBox="0 0 835.62 200.11"><defs><style>.cls-1{fill:none;}.cls-2{clip-path:url(#clip-path);}.cls-3{fill:#898a8d;}.cls-4{fill:#ff4438;}</style><clipPath id="clip-path" transform="translate(0 0)"><rect class="cls-1" width="835.62" height="200.11"/></clipPath></defs><g class="cls-2"><path class="cls-3" d="M579.05,74.43a31.1,31.1,0,0,1,13.15,2.81C593.88,68,598.35,66,607.15,66l2.56.13.14,8.05h-1c-5.87,0-10.46.63-11.5,7.4a23.89,23.89,0,0,1,6.27,16,21.09,21.09,0,0,1-8.29,16.18c-4.75,3.58-10.61,5-16.49,5-2.95,0-6.38-1-8.81-1-3.07,0-6.9,2.69-6.9,6,0,3.07,2,4.86,4.85,5.5,4.48,1,10.74.77,15.33,1,5.61.25,13.93.38,19,2.3a15.33,15.33,0,0,1,10,14.31c0,16.48-19.54,18.65-32,18.65-6,0-13.42-.26-19-2.57-6.25-2.55-11.13-7.14-11.13-14.3,0-6.76,3.7-11,9.85-13.15-3.7-2.42-6.27-5.37-6.27-10.22,0-6.38,3.72-9.2,9-11.62a20.9,20.9,0,0,1-8.44-17.07c0-14.07,11.89-22.11,24.92-22.11m1.29,83.24c4.84,0,12.38-.76,16.72-2.8,3.58-1.66,5.63-3.7,5.63-7.67,0-6.26-7-7.4-13.81-7.79-3.82-.26-14.93-.13-22-1-3.83,1.79-7,4.22-7,8.82,0,8.94,13.8,10.47,20.45,10.47M579.05,111c8.7,0,14.43-5.75,14.43-14.43a14.11,14.11,0,0,0-14.43-14.19c-8.43,0-14.55,6-14.55,14.31,0,8.82,5.74,14.31,14.55,14.31" transform="translate(0 0)"/><path class="cls-3" d="M625.42,76.08V91.29h.25c3.09-8.82,8.56-17,19-17l3.58.26v9.57h-2c-7.55,0-12.92,3.71-16.62,10.23-2.67,4.72-3.2,8.82-3.2,13.92v32.65h-9.95V76.08Z" transform="translate(0 0)"/><path class="cls-3" d="M678.05,74.43c19,0,28.48,16.6,28.48,33.73,0,18.09-10.46,34.06-30.15,34.06-19.42,0-28.09-17.12-28.09-34.19,0-18,10.2-33.6,29.76-33.6M663.1,125.74a16.33,16.33,0,0,0,14.17,8.17c6.65,0,11.88-3.44,15-9.32,2.67-5.11,3.2-11,3.2-16.56,0-6.13-.78-12.52-4.09-17.77a16.92,16.92,0,0,0-14.06-7.66,16.42,16.42,0,0,0-14.68,9.2c-2.41,4.74-3.19,11-3.19,16.23,0,5.83.9,12.61,3.7,17.71" transform="translate(0 0)"/><path class="cls-3" d="M766.57,140.94h-9.08V128h-.26c-3.19,8.06-11,14.19-19.91,14.19-6.4,0-12.53-2.31-16.62-7.28-4.33-5.37-5.1-12.77-5.1-19.41V76.08h10v39.45c0,3.69.25,8.55,2.16,11.87a12.54,12.54,0,0,0,10.47,6.14,17.07,17.07,0,0,0,13.42-6.64c4-4.87,5-10.23,5-16.32V76.08h10Z" transform="translate(0 0)"/><path class="cls-3" d="M790.57,162.15h-10V76.08h9.06V88.61h.26c3.32-8.56,10.34-14.18,20.05-14.18,18.13,0,25.64,18,25.64,33.6,0,7.36-1.4,15.54-5.23,22.05-4.47,7.15-11.59,12.14-20.41,12.14s-14.94-4.09-19.41-11.49Zm17.11-78.91c-8.8,0-15.32,7.79-17.11,15.84v14.4c0,11,7.42,20.3,17.11,20.3a15.85,15.85,0,0,0,13.3-7.91c2.93-5,3.44-11.75,3.44-17.46,0-10.59-3.32-25.17-16.74-25.17" transform="translate(0 0)"/><polygon class="cls-4" points="136.77 194.69 134.22 194.69 134.22 174.31 146.7 174.31 146.7 176.55 136.77 176.55 136.77 183 145 183 145 185.06 136.77 185.06 136.77 194.69"/><path class="cls-4" d="M160.77,194.69h-2.32a21.76,21.76,0,0,1-.27-2.7,5.48,5.48,0,0,1-5.29,3.14,5.32,5.32,0,0,1-3.9-1.35,4.42,4.42,0,0,1-1.36-3.24,4.51,4.51,0,0,1,1.94-3.76c1.29-1,3.5-1.47,6.6-1.47.42,0,1.09,0,2,.07a8.91,8.91,0,0,0-.28-2.61,2.33,2.33,0,0,0-1.18-1.27,5,5,0,0,0-2.35-.48c-2.38,0-3.78.91-4.16,2.72l-2.17-.37q.79-4.17,6.67-4.17c2.08,0,3.56.45,4.42,1.38s1.32,2.51,1.32,4.8v6.4a12,12,0,0,0,.32,2.91m-2.59-7.53c-1-.07-1.69-.09-2.19-.09a8.45,8.45,0,0,0-4.31.91,2.93,2.93,0,0,0-1.54,2.67,2.45,2.45,0,0,0,.83,1.88,3.34,3.34,0,0,0,2.4.78,4.49,4.49,0,0,0,3.48-1.53,5.33,5.33,0,0,0,1.37-3.63c0-.28,0-.62,0-1" transform="translate(0 0)"/><path class="cls-4" d="M185.37,194.69h-2.28v-9.37a8.92,8.92,0,0,0-.2-2.17,2.63,2.63,0,0,0-1-1.33,2.86,2.86,0,0,0-1.75-.61,3.7,3.7,0,0,0-2.59,1.24,5.09,5.09,0,0,0-1.24,3.76v8.48h-2.28v-9.92a3.59,3.59,0,0,0-.94-2.81,3.14,3.14,0,0,0-2-.82,3.38,3.38,0,0,0-2.6,1.28,4.87,4.87,0,0,0-1.1,3.26v9h-2.24V179.62h2v2.9q1.69-3.32,4.65-3.32a3.86,3.86,0,0,1,2.76,1.06,4.85,4.85,0,0,1,1.46,2.55c1-2.4,2.63-3.61,4.77-3.61a4.37,4.37,0,0,1,2.7.88,4.12,4.12,0,0,1,1.5,2,11.24,11.24,0,0,1,.35,3.22Z" transform="translate(0 0)"/><path class="cls-4" d="M195.5,195.13a5.73,5.73,0,0,1-4.84-2.31,9.18,9.18,0,0,1-1.74-5.72,8.26,8.26,0,0,1,2-5.75,6.32,6.32,0,0,1,4.87-2.15,5.92,5.92,0,0,1,4.92,2.27,8.82,8.82,0,0,1,1.8,5.66,8.46,8.46,0,0,1-1.94,5.76,6.34,6.34,0,0,1-5,2.24m.18-2a3.75,3.75,0,0,0,3-1.47,7.25,7.25,0,0,0,1.21-4.6,6.74,6.74,0,0,0-1.27-4.55,3.91,3.91,0,0,0-3-1.41,3.72,3.72,0,0,0-3,1.43,6.94,6.94,0,0,0-1.21,4.52c0,2.17.41,3.73,1.21,4.68a3.78,3.78,0,0,0,3,1.4" transform="translate(0 0)"/><path class="cls-4" d="M217.89,194.69h-2.12v-2.88c-1.08,2.21-2.67,3.32-4.8,3.32a4.54,4.54,0,0,1-3.63-1.54,6.42,6.42,0,0,1-1.32-4.34v-9.63h2.34v9.63a4,4,0,0,0,.94,3.09,3,3,0,0,0,2,.83,3.48,3.48,0,0,0,2.05-.63,5,5,0,0,0,1.53-1.83,5.55,5.55,0,0,0,.61-2.59v-8.5h2.35Z" transform="translate(0 0)"/><path class="cls-4" d="M220.58,190.79l2.25-.46c.49,1.91,2.07,2.86,4.71,2.86a4.38,4.38,0,0,0,2.48-.67,2.08,2.08,0,0,0,1-1.84c0-1.19-.87-1.94-2.59-2.26l-3.18-.6a5.85,5.85,0,0,1-3-1.4,3.63,3.63,0,0,1-1.11-2.77,4,4,0,0,1,1.51-3.16,6,6,0,0,1,4.06-1.29c3.28,0,5.3,1.29,6.06,3.85l-2.14.44a3.69,3.69,0,0,0-3.81-2.35,4.31,4.31,0,0,0-2.35.6,1.82,1.82,0,0,0-.92,1.64c0,1.11.78,1.82,2.34,2.1l2.95.54c3.08.55,4.61,2,4.61,4.46a4,4,0,0,1-1.72,3.36,7.47,7.47,0,0,1-4.56,1.29c-3.59,0-5.79-1.45-6.64-4.34" transform="translate(0 0)"/><rect class="cls-4" x="236.83" y="174.31" width="2.34" height="20.38"/><path class="cls-4" d="M254.25,179.62l-6,16.85c-.89,2.42-2.28,3.64-4.21,3.64a7.35,7.35,0,0,1-2-.31V198a7.09,7.09,0,0,0,1.57.21,2.85,2.85,0,0,0,1.87-.64,7.26,7.26,0,0,0,1.51-3.14l-5.22-14.77h2.38L248.15,191l4.12-11.34Z" transform="translate(0 0)"/><path class="cls-4" d="M274.26,190.2l2.19.47a6.08,6.08,0,0,1-2.34,3.18,6.73,6.73,0,0,1-4.07,1.28,6.35,6.35,0,0,1-5-2.18,8.34,8.34,0,0,1-1.92-5.71,8.46,8.46,0,0,1,2-5.81,6.41,6.41,0,0,1,5-2.23,6,6,0,0,1,4.75,2c1.2,1.38,1.81,3.41,1.85,6.13h-11c0,2.28.47,3.82,1.43,4.62a4.67,4.67,0,0,0,3,1.2,4.12,4.12,0,0,0,4.06-3m-.13-4.58a6.49,6.49,0,0,0-.42-2.25,3.86,3.86,0,0,0-1.31-1.68,3.61,3.61,0,0,0-2.22-.7,4,4,0,0,0-3,1.26,5.24,5.24,0,0,0-1.37,3.37Z" transform="translate(0 0)"/><path class="cls-4" d="M286.52,179.62v1.85h-3.59v13.22h-2.34V181.47H278v-1.85h2.57q.06-3.62,1.39-4.68a5.18,5.18,0,0,1,3.26-1.05,13,13,0,0,1,2.16.22V176a6,6,0,0,0-1.46-.2,3.23,3.23,0,0,0-2.27.68,3.38,3.38,0,0,0-.74,2.54v.62Z" transform="translate(0 0)"/><path class="cls-4" d="M296.51,179.62v1.85h-3.59v13.22h-2.34V181.47H288v-1.85h2.57q.06-3.62,1.39-4.68a5.21,5.21,0,0,1,3.27-1.05,12.84,12.84,0,0,1,2.15.22V176a5.81,5.81,0,0,0-1.45-.2,3.24,3.24,0,0,0-2.28.68,3.42,3.42,0,0,0-.74,2.54v.62Z" transform="translate(0 0)"/><path class="cls-4" d="M308.65,190.2l2.18.47a6.11,6.11,0,0,1-2.33,3.18,6.74,6.74,0,0,1-4.08,1.28,6.38,6.38,0,0,1-5-2.18,9.5,9.5,0,0,1,.07-11.52,6.39,6.39,0,0,1,5-2.23,6,6,0,0,1,4.75,2c1.2,1.38,1.82,3.41,1.85,6.13h-11q0,3.42,1.44,4.62a4.63,4.63,0,0,0,3,1.2,4.14,4.14,0,0,0,4.06-3m-.14-4.58a6.49,6.49,0,0,0-.41-2.25,3.82,3.82,0,0,0-1.32-1.68,3.58,3.58,0,0,0-2.21-.7,4,4,0,0,0-3,1.26,5.19,5.19,0,0,0-1.38,3.37Z" transform="translate(0 0)"/><path class="cls-4" d="M323.56,189.41l2.12.38a6.87,6.87,0,0,1-2,3.93,5.58,5.58,0,0,1-3.85,1.41,5.48,5.48,0,0,1-4.75-2.31,9.47,9.47,0,0,1-1.63-5.62,9.12,9.12,0,0,1,1.72-5.71,5.57,5.57,0,0,1,4.7-2.29,5.32,5.32,0,0,1,3.94,1.48,6.55,6.55,0,0,1,1.85,3.79l-2.12.4q-.6-3.74-3.61-3.73a3.33,3.33,0,0,0-3,1.66,7.82,7.82,0,0,0-1.05,4.26,8.2,8.2,0,0,0,1.05,4.51,3.23,3.23,0,0,0,2.91,1.6c1.94,0,3.16-1.24,3.68-3.76" transform="translate(0 0)"/><path class="cls-4" d="M335.76,193.1V195a16.63,16.63,0,0,1-2.15.16c-2.92,0-4.38-1.51-4.38-4.57v-9.09h-2.67v-1.84h2.67l.11-3.79,2.18-.22v4h3.37v1.84h-3.37v9.47c0,1.56.8,2.33,2.42,2.33a10.43,10.43,0,0,0,1.82-.16" transform="translate(0 0)"/><path class="cls-4" d="M340.78,176.93h-2.52v-2.61h2.52Zm-.08,17.76h-2.34V179.61h2.34Z" transform="translate(0 0)"/><polygon class="cls-4" points="356.47 179.62 351.25 194.69 348.84 194.69 343.43 179.62 346.02 179.62 350.22 191.87 354.38 179.62 356.47 179.62"/><path class="cls-4" d="M368.71,190.2l2.18.47a6.11,6.11,0,0,1-2.33,3.18,6.74,6.74,0,0,1-4.08,1.28,6.38,6.38,0,0,1-5-2.18,9.5,9.5,0,0,1,.07-11.52,6.4,6.4,0,0,1,5-2.23,6,6,0,0,1,4.76,2c1.2,1.38,1.82,3.41,1.85,6.13h-11q0,3.42,1.44,4.62a4.65,4.65,0,0,0,3,1.2,4.14,4.14,0,0,0,4.06-3m-.14-4.58a6.49,6.49,0,0,0-.41-2.25,3.82,3.82,0,0,0-1.32-1.68,3.61,3.61,0,0,0-2.22-.7,4,4,0,0,0-3,1.26,5.19,5.19,0,0,0-1.38,3.37Z" transform="translate(0 0)"/><path class="cls-4" d="M380.35,190.79l2.24-.46c.49,1.91,2.07,2.86,4.71,2.86a4.41,4.41,0,0,0,2.49-.67,2.1,2.1,0,0,0,1-1.84c0-1.19-.86-1.94-2.59-2.26l-3.17-.6a5.85,5.85,0,0,1-3-1.4,3.66,3.66,0,0,1-1.1-2.77,4,4,0,0,1,1.51-3.16,6,6,0,0,1,4.06-1.29c3.28,0,5.29,1.29,6.06,3.85l-2.14.44a3.71,3.71,0,0,0-3.82-2.35,4.23,4.23,0,0,0-2.34.6,1.83,1.83,0,0,0-.93,1.64c0,1.11.79,1.82,2.35,2.1l3,.54q4.6.82,4.61,4.46a4,4,0,0,1-1.72,3.36,7.54,7.54,0,0,1-4.58,1.29c-3.57,0-5.77-1.45-6.62-4.34" transform="translate(0 0)"/><path class="cls-4" d="M399,176.93H396.5v-2.61H399Zm-.08,17.76h-2.35V179.61h2.35Z" transform="translate(0 0)"/><path class="cls-4" d="M415.54,194.69h-2.2V185a4,4,0,0,0-.91-2.95,3.13,3.13,0,0,0-2.21-.85,3.83,3.83,0,0,0-3,1.44,5.66,5.66,0,0,0-1.21,3.78v8.26h-2.35V179.62h2.18v2.78c1.23-2.13,2.81-3.2,4.77-3.2a4.83,4.83,0,0,1,4.5,2.84,12,12,0,0,1,.44,3.94Z" transform="translate(0 0)"/><path class="cls-4" d="M429.17,189.41l2.13.38a6.82,6.82,0,0,1-2,3.93,5.56,5.56,0,0,1-3.84,1.41,5.46,5.46,0,0,1-4.75-2.31,9.47,9.47,0,0,1-1.64-5.62,9.19,9.19,0,0,1,1.73-5.71,5.57,5.57,0,0,1,4.69-2.29,5.38,5.38,0,0,1,4,1.48,6.66,6.66,0,0,1,1.84,3.79l-2.13.4q-.6-3.74-3.61-3.73a3.31,3.31,0,0,0-3,1.66,7.82,7.82,0,0,0-1,4.26,8.29,8.29,0,0,0,1,4.51,3.26,3.26,0,0,0,2.91,1.6c1.94,0,3.18-1.24,3.68-3.76" transform="translate(0 0)"/><path class="cls-4" d="M444.5,190.2l2.18.47a6.06,6.06,0,0,1-2.33,3.18,6.79,6.79,0,0,1-4.08,1.28,6.37,6.37,0,0,1-5-2.18,9.5,9.5,0,0,1,.07-11.52,6.37,6.37,0,0,1,5-2.23,6.08,6.08,0,0,1,4.77,2c1.19,1.38,1.8,3.41,1.84,6.13H436q0,3.42,1.43,4.62a4.66,4.66,0,0,0,3,1.2,4.14,4.14,0,0,0,4.06-3m-.14-4.58a6.26,6.26,0,0,0-.42-2.25,3.72,3.72,0,0,0-1.31-1.68,3.61,3.61,0,0,0-2.22-.7,4,4,0,0,0-3,1.26,5.24,5.24,0,0,0-1.37,3.37Z" transform="translate(0 0)"/><path class="cls-4" d="M471.09,192.8v1.89H456.8V192.8h6.12V177.07a23.8,23.8,0,0,1-5.62,4.41V178.9a18.45,18.45,0,0,0,6.23-5h1.84V192.8Z" transform="translate(0 0)"/><path class="cls-4" d="M473.31,191l2-.76a4.36,4.36,0,0,0,4.27,2.83,4.76,4.76,0,0,0,4.38-2.45,13.25,13.25,0,0,0,1.53-6.64,6.71,6.71,0,0,1-12.72-3,6.82,6.82,0,0,1,2-5,7.62,7.62,0,0,1,11.05.62,12,12,0,0,1,2,7.43,13.61,13.61,0,0,1-2.16,8,7.1,7.1,0,0,1-6.16,3.08q-4.69,0-6.29-4.13m6.76-5.39a4.72,4.72,0,0,0,3.53-1.47,4.82,4.82,0,0,0,1.43-3.45,4.57,4.57,0,0,0-1.35-3.3,4.79,4.79,0,0,0-3.56-1.37,4.6,4.6,0,0,0-3.55,1.41,5,5,0,0,0-1.3,3.44,4.43,4.43,0,0,0,1.45,3.48,5,5,0,0,0,3.35,1.26" transform="translate(0 0)"/><path class="cls-4" d="M505.37,192.8v1.89H491.08V192.8h6.12V177.07a24,24,0,0,1-5.61,4.41V178.9a18.31,18.31,0,0,0,6.22-5h1.84V192.8Z" transform="translate(0 0)"/><path class="cls-4" d="M512.72,194.69h-2.63a25,25,0,0,1,2.09-10,29.21,29.21,0,0,1,5.14-8.18H506.24l.26-2.24H520v1.53a32.67,32.67,0,0,0-5.45,9.14,25.25,25.25,0,0,0-1.8,9c0,.16,0,.39,0,.69" transform="translate(0 0)"/><path class="cls-4" d="M0,82.88c0,48,37.15,82.87,88.36,82.87,7,0,29.89-1.29,45.52-16.36v13.33h34.77V67.18H93.13v34.17h30.75c-3.65,12.5-17.56,25-36.53,25-27.77,0-37.61-22.47-37.61-43.5s9.84-43.51,37.61-43.51c13.9,0,25.22,4.94,29.68,12.93l.66,1.37h50.4l-.66-3C158.9,13.28,119.47,0,88.36,0,37.15,0,0,34.87,0,82.88" transform="translate(0 0)"/><path class="cls-4" d="M525.84,7s-24.92,50.81-28.58,58.29C493.61,57.84,468.69,7,468.69,7H317.8V141.85L288.11,90.69c14-6.65,22.54-21.31,22.54-38.87,0-14.78-6-26.72-17.46-34.6C283.6,10.62,270.2,7,255.43,7H175.19V162.72h43.45V102.26H243.3c1.27,2.52,30.25,60.46,30.25,60.46H454.33V126.86H364.55V103.29h64.71V69.91H364.55v-27h74.8c16,27.66,35.53,61.19,35.89,61.85v58h44v-58C520,103.63,576,7,576,7ZM247.11,67.44H218.64V41.91h27C250.26,41.91,261,43.07,261,54c0,8.93-4.61,13.45-13.85,13.45" transform="translate(0 0)"/></g></svg>